<svg width="442" height="61" viewBox="0 0 442 61" fill="none" xmlns="http://www.w3.org/2000/svg">
<path d="M29.1701 2.34229L47.5618 53.8425C49.1389 58.2768 50.2156 59.6481 52.1842 60.499H39.9811C41.9497 59.6481 42.6023 57.2758 41.3624 53.8125L33.575 32.0012C33.575 33.9631 32.9768 35.4846 31.9218 36.6858C30.0946 38.7578 27.0275 39.8188 23.6776 40.6997C20.3168 41.5805 16.6515 42.2812 13.5627 43.5224C10.4956 44.7636 8.03755 46.5154 6.94992 49.5383L5.81879 52.7014C5.47075 53.6723 5.2206 54.383 4.90519 55.3239C4.05684 57.9665 3.87194 59.7783 5.54689 60.499H0C1.9686 59.6481 3.08885 58.2768 4.66591 53.8625L22.5356 3.73363C21.883 3.093 21.1652 2.69261 20.3603 2.35227H29.1701V2.34229ZM8.13543 46.2451C9.48409 44.7736 11.2895 43.7226 13.2799 42.9118C16.4558 41.6306 20.1646 40.9299 23.4818 40.0591C26.7991 39.1882 29.7139 38.1372 31.3671 36.2653C33.7055 33.4826 32.6723 29.5288 31.0734 24.9743L25.3417 8.91867C24.5477 6.6865 23.819 5.28514 23.0685 4.33422L8.13543 46.2451Z" fill="white"/>
<path d="M96.4291 41.01C96.4291 53.0417 87.9782 60.489 76.6887 60.489C71.6204 60.489 67.7919 58.8574 64.7683 56.4751C63.1695 58.437 60.7659 60.6491 60.7659 59.3379V6.05589C60.7659 3.27318 59.961 2.13205 56.2305 2.13205V1.39134L65.1272 0V27.2566C67.7049 23.3327 73.1322 21.2007 78.0265 21.2007C91.7197 21.2007 96.44 31.4307 96.44 41.01H96.4291ZM90.5559 42.5615C90.5559 30.0393 84.5957 23.0825 76.3298 23.0825C69.4777 23.0825 65.1272 27.2565 65.1272 33.9731V48.3772C65.1272 55.0036 69.4016 59.7583 76.3298 59.7583C81.67 59.7583 90.5559 56.1548 90.5559 42.5715V42.5615Z" fill="white"/>
<path d="M143.708 40.8198C143.708 51.5603 137.476 60.489 123.848 60.489C110.22 60.489 103.988 51.5603 103.988 40.8198C103.988 30.0794 110.307 21.1506 123.848 21.1506C137.389 21.1506 143.708 29.9993 143.708 40.8198ZM138.553 40.8198C138.553 25.9854 131.07 21.8914 123.859 21.8914C116.648 21.8914 109.078 25.9854 109.078 40.8198C109.078 55.6543 116.648 59.7483 123.859 59.7483C131.07 59.7483 138.553 55.6543 138.553 40.8198Z" fill="white"/>
<path d="M189.225 58.6872V59.3479L182.101 60.4089C180.143 60.8193 180.23 59.508 180.23 59.508V52.7915C179.252 56.8054 174.977 60.499 168.56 60.499C162.774 60.499 154.399 58.8574 154.399 48.2871V28.9482C154.399 25.1779 152.739 23.2927 149.418 23.2927V22.6421L158.685 21.1707V48.0569C158.685 55.8444 164.384 58.3869 169.55 58.3869C175.869 58.3869 178.99 54.7033 180.241 51.0898V28.3877C180.241 23.3828 180.241 23.3027 176.054 23.3027V22.6521L184.69 21.1806V53.6323C184.69 57.5661 185.494 58.3068 189.236 58.7172L189.225 58.6872Z" fill="white"/>
<path d="M214.98 54.1828L215.513 54.343C214.806 57.7063 212.13 60.489 207.769 60.489C201.896 60.489 198.154 57.8664 198.154 47.9468V22.6221H193.608L193.521 21.8813H198.154V9.5093L202.603 9.0188V21.8914H213.109L212.935 22.6321H202.603V47.7065C202.603 56.1447 205.539 58.2768 209.553 58.2768C212.13 58.2768 214.36 56.395 214.98 54.1828Z" fill="white"/>
<path d="M243.889 2.30298L264.162 45.8054C270.917 31.3012 277.682 16.7971 284.436 2.30298H294.105C292.125 3.15381 290.298 4.65527 290.298 8.95946V53.8332C290.298 58.1374 292.125 59.6389 294.105 60.4897H280.629C282.608 59.6389 284.436 58.1374 284.436 53.8332V3.99463L261.367 53.5029L241.257 10.3408C240.3 8.28881 239.745 6.98755 238.244 5.18579V53.8332C238.244 58.1374 240.071 59.6389 242.051 60.4897C239.267 60.4897 236.504 60.4897 233.72 60.4897C235.699 59.6389 237.526 58.1374 237.526 53.8332V4.47511C236.189 3.29396 234.851 2.78345 233.731 2.30298H243.911H243.889Z" fill="white"/>
<path d="M345.266 40.6597H346.245C346.332 53.8826 337.468 60.489 324.873 60.489C313.704 60.489 305.013 53.7124 305.013 40.4094V10.21C305.013 4.41431 303.154 3.19311 299.249 3.19311V2.29224H318.228V3.19311C314.41 3.19311 311.757 3.6836 311.757 10.3701V41.2202C311.757 51.5803 318.413 57.456 328.604 57.456C338.795 57.456 345.277 51.25 345.277 40.6396L345.266 40.6597ZM335.608 2.30226H356.708V3.20313C345.973 3.20313 346.245 7.93774 346.245 19.529H345.266C345.266 7.93774 344.908 3.20313 335.597 3.20313V2.30226H335.608Z" fill="white"/>
<path d="M394.166 53.8825C394.166 53.8825 390.838 60.489 377.786 60.489C366.225 60.489 360.015 56.375 360.015 56.375V40.8999H360.711C360.711 55.6443 363.517 59.7583 377.699 59.7583C394.949 59.7583 395.656 44.2031 385.759 37.9971L370.26 28.4878C366.062 25.5049 354.674 18.9785 360.885 8.65846C360.885 8.65846 365.17 2.29224 375.774 2.29224C386.379 2.29224 393.285 5.99586 393.285 5.99586V19.5391H392.404C392.404 7.93775 390.914 3.01294 375.763 3.01294C366.301 3.01294 355.36 14.7844 370.336 23.7231L385.748 32.9922C397.657 40.2493 396.787 49.3481 394.155 53.8625L394.166 53.8825Z" fill="white"/>
<path d="M442 44.133V60.489H402.312V59.7482C406.087 59.7482 406.717 58.0967 406.717 52.4812V8.52832C406.717 3.40332 406.271 3.07299 402.312 3.07299V2.33228H440.825V16.376H440.02C440.02 3.32324 433.288 3.07299 418.747 3.07299H412.188V30.75H420.628C425.479 30.75 430.95 30.6699 430.95 22.6521H431.755V39.5886H430.95C430.95 31.5708 425.207 31.4907 420.628 31.4907H412.188V59.7482H417.213C433.19 59.7482 441.184 60.489 441.184 44.133H441.989H442Z" fill="white"/>
</svg>
