<svg width="160" height="24" viewBox="0 0 160 24" fill="none" xmlns="http://www.w3.org/2000/svg">
<path d="M10.5381 0.920166L17.1824 21.1518C17.7521 22.8938 18.1411 23.4325 18.8523 23.7667H14.4437C15.1549 23.4325 15.3907 22.5005 14.9427 21.14L12.1294 12.5715C12.1294 13.3423 11.9133 13.94 11.5322 14.4118C10.8721 15.2258 9.76405 15.6426 8.55386 15.9887C7.33974 16.3347 6.0156 16.61 4.89971 17.0976C3.79167 17.5852 2.90368 18.2733 2.51076 19.4609L2.10212 20.7035C1.97639 21.0849 1.88601 21.3641 1.77207 21.7338C1.46559 22.7719 1.39879 23.4836 2.00389 23.7667H0C0.711184 23.4325 1.11589 22.8938 1.68563 21.1596L8.14129 1.46675C7.90554 1.21508 7.64621 1.05779 7.35545 0.92409H10.5381V0.920166ZM2.93904 18.1672C3.42626 17.5891 4.07851 17.1762 4.79755 16.8577C5.94487 16.3544 7.28473 16.0791 8.48313 15.737C9.68154 15.3949 10.7346 14.982 11.3318 14.2467C12.1766 13.1535 11.8033 11.6002 11.2257 9.81106L9.15503 3.50367C8.8682 2.62677 8.60494 2.07625 8.33382 1.70269L2.93904 18.1672Z" fill="#363636"/>
<path d="M34.8363 16.1106C34.8363 20.8372 31.7833 23.7628 27.7048 23.7628C25.8738 23.7628 24.4907 23.1218 23.3984 22.186C22.8208 22.9567 21.9524 23.8257 21.9524 23.3106V2.37903C21.9524 1.28585 21.6617 0.837567 20.314 0.837567V0.546582L23.528 0V10.7076C24.4593 9.16615 26.4199 8.32858 28.1881 8.32858C33.1349 8.32858 34.8402 12.3474 34.8402 16.1106H34.8363ZM32.7145 16.7201C32.7145 11.8008 30.5613 9.06785 27.5751 9.06785C25.0997 9.06785 23.528 10.7076 23.528 13.3462V19.0047C23.528 21.6079 25.0722 23.4757 27.5751 23.4757C29.5044 23.4757 32.7145 22.0601 32.7145 16.724V16.7201Z" fill="#363636"/>
<path d="M51.9163 16.0358C51.9163 20.2551 49.6649 23.7627 44.7416 23.7627C39.8183 23.7627 37.5669 20.2551 37.5669 16.0358C37.5669 11.8164 39.8498 8.30884 44.7416 8.30884C49.6335 8.30884 51.9163 11.785 51.9163 16.0358ZM50.0539 16.0358C50.0539 10.2081 47.3506 8.59984 44.7455 8.59984C42.1405 8.59984 39.4058 10.2081 39.4058 16.0358C39.4058 21.8634 42.1405 23.4717 44.7455 23.4717C47.3506 23.4717 50.0539 21.8634 50.0539 16.0358Z" fill="#363636"/>
<path d="M68.3603 23.0549V23.3144L65.7867 23.7312C65.0795 23.8924 65.1109 23.3773 65.1109 23.3773V20.7387C64.7573 22.3156 63.2131 23.7666 60.8949 23.7666C58.8045 23.7666 55.7791 23.1217 55.7791 18.9692V11.372C55.7791 9.89087 55.1792 9.15029 53.9795 9.15029V8.8947L57.3272 8.31665V18.8788C57.3272 21.9381 59.3861 22.9369 61.2524 22.9369C63.5353 22.9369 64.663 21.4898 65.1148 20.0702V11.1518C65.1148 9.18568 65.1148 9.15423 63.6021 9.15423V8.89862L66.7219 8.32057V21.0691C66.7219 22.6144 67.0126 22.9054 68.3643 23.0666L68.3603 23.0549Z" fill="#363636"/>
<path d="M77.6644 21.2854L77.8569 21.3484C77.6015 22.6696 76.635 23.7628 75.0594 23.7628C72.9376 23.7628 71.586 22.7325 71.586 18.8356V8.88694H69.9435L69.9121 8.59596H71.586V3.73566L73.193 3.54297V8.59989H76.9886L76.9257 8.89088H73.193V18.7413C73.193 22.0562 74.2539 22.8938 75.7037 22.8938C76.635 22.8938 77.4405 22.1545 77.6644 21.2854Z" fill="#363636"/>
<path d="M88.1084 0.904541L95.4324 17.9943C97.8724 12.2964 100.316 6.59849 102.756 0.904541H106.249C105.534 1.23879 104.874 1.82863 104.874 3.51951V21.148C104.874 22.8388 105.534 23.4287 106.249 23.7629H101.381C102.096 23.4287 102.756 22.8388 102.756 21.148V1.5691L94.4226 21.0182L87.1575 4.06217C86.8117 3.25605 86.6113 2.74485 86.0691 2.03704V21.148C86.0691 22.8388 86.7292 23.4287 87.4443 23.7629C86.4385 23.7629 85.4404 23.7629 84.4346 23.7629C85.1497 23.4287 85.8098 22.8388 85.8098 21.148V1.75785C85.3265 1.29384 84.8432 1.09329 84.4385 0.904541H88.1162H88.1084Z" fill="#363636"/>
<path d="M124.732 15.9728H125.086C125.117 21.1674 121.915 23.7627 117.365 23.7627C113.33 23.7627 110.19 21.1005 110.19 15.8745V4.01083C110.19 1.73404 109.518 1.25429 108.108 1.25429V0.900391H114.964V1.25429C113.585 1.25429 112.626 1.44698 112.626 4.07375V16.1931C112.626 20.263 115.031 22.5712 118.713 22.5712C122.394 22.5712 124.736 20.1332 124.736 15.965L124.732 15.9728ZM121.243 0.904327H128.866V1.25823C124.988 1.25823 125.086 3.1182 125.086 7.67179H124.732C124.732 3.1182 124.603 1.25823 121.239 1.25823V0.904327H121.243Z" fill="#363636"/>
<path d="M142.398 21.1674C142.398 21.1674 141.196 23.7627 136.481 23.7627C132.304 23.7627 130.06 22.1465 130.06 22.1465V16.0672H130.312C130.312 21.8595 131.326 23.4756 136.449 23.4756C142.681 23.4756 142.936 17.3649 139.361 14.9269L133.762 11.1912C132.245 10.0194 128.131 7.45552 130.375 3.40133C130.375 3.40133 131.923 0.900391 135.754 0.900391C139.585 0.900391 142.08 2.35534 142.08 2.35534V7.67572H141.762C141.762 3.1182 141.223 1.18352 135.75 1.18352C132.331 1.18352 128.379 5.80788 133.789 9.31942L139.357 12.9607C143.659 15.8116 143.345 19.3861 142.394 21.1595L142.398 21.1674Z" fill="#363636"/>
<path d="M159.678 17.3375V23.7628H145.341V23.4718C146.704 23.4718 146.932 22.823 146.932 20.617V3.35035C146.932 1.33702 146.771 1.20725 145.341 1.20725V0.91626H159.254V6.43326H158.963C158.963 1.30556 156.531 1.20725 151.278 1.20725H148.909V12.08H151.958C153.71 12.08 155.686 12.0486 155.686 8.89879H155.977V15.5522H155.686C155.686 12.4025 153.612 12.371 151.958 12.371H148.909V23.4718H150.724C156.496 23.4718 159.384 23.7628 159.384 17.3375H159.675H159.678Z" fill="#363636"/>
</svg>
