<svg width="294" height="44" viewBox="0 0 294 44" fill="none" xmlns="http://www.w3.org/2000/svg">
<path d="M19.4027 1.70361L31.6361 39.1589C32.6851 42.384 33.4013 43.3813 34.7108 44.0001H26.5938C27.9032 43.3813 28.3372 41.656 27.5125 39.1371L22.3327 23.2741C22.3327 24.701 21.9348 25.8075 21.233 26.6811C20.0177 28.1881 17.9775 28.9597 15.7493 29.6004C13.5139 30.241 11.0759 30.7506 9.02133 31.6533C6.98122 32.556 5.34624 33.83 4.6228 36.0286L3.87042 38.329C3.63892 39.0352 3.47252 39.5521 3.26273 40.2364C2.69844 42.1583 2.57546 43.476 3.68956 44.0001H0C1.30943 43.3813 2.05458 42.384 3.10357 39.1735L14.9897 2.71551C14.5557 2.2496 14.0782 1.9584 13.5428 1.71088H19.4027V1.70361ZM5.41135 33.6335C6.30842 32.5633 7.50933 31.7989 8.83323 31.2093C10.9457 30.2774 13.4126 29.7678 15.6191 29.1345C17.8256 28.5011 19.7645 27.7367 20.8641 26.3754C22.4195 24.3515 21.7322 21.476 20.6688 18.1636L16.8562 6.48652C16.3281 4.8631 15.8434 3.84391 15.3442 3.15232L5.41135 33.6335Z" fill="#EEAEB9"/>
<path d="M64.1403 29.826C64.1403 38.5765 58.5191 43.9927 51.0098 43.9927C47.6386 43.9927 45.0921 42.8061 43.0809 41.0735C42.0174 42.5003 40.4186 44.1092 40.4186 43.1556V4.40436C40.4186 2.38054 39.8833 1.55061 37.4019 1.55061V1.0119L43.3196 0V19.8233C45.0342 16.9696 48.6442 15.4189 51.8996 15.4189C61.0078 15.4189 64.1475 22.8591 64.1475 29.826H64.1403ZM60.2337 30.9543C60.2337 21.8471 56.2692 16.7876 50.7711 16.7876C46.2134 16.7876 43.3196 19.8233 43.3196 24.7081V35.184C43.3196 40.0033 46.1627 43.4613 50.7711 43.4613C54.3232 43.4613 60.2337 40.8405 60.2337 30.9616V30.9543Z" fill="#EEAEB9"/>
<path d="M95.5886 29.6877C95.5886 37.4991 91.4433 43.9928 82.3785 43.9928C73.3138 43.9928 69.1685 37.4991 69.1685 29.6877C69.1685 21.8763 73.3717 15.3826 82.3785 15.3826C91.3854 15.3826 95.5886 21.8181 95.5886 29.6877ZM92.1595 29.6877C92.1595 18.8988 87.1822 15.9213 82.3858 15.9213C77.5893 15.9213 72.5542 18.8988 72.5542 29.6877C72.5542 40.4766 77.5893 43.4541 82.3858 43.4541C87.1822 43.4541 92.1595 40.4766 92.1595 29.6877Z" fill="#EEAEB9"/>
<path d="M125.865 42.6822V43.1627L121.126 43.9344C119.824 44.2328 119.882 43.2792 119.882 43.2792V38.3943C119.231 41.3136 116.388 43.9999 112.119 43.9999C108.271 43.9999 102.7 42.806 102.7 35.1184V21.0535C102.7 18.3114 101.596 16.9403 99.3867 16.9403V16.4671L105.55 15.397V34.9509C105.55 40.6147 109.341 42.4638 112.778 42.4638C116.981 42.4638 119.057 39.7848 119.889 37.1567V20.6458C119.889 17.0058 119.889 16.9476 117.104 16.9476V16.4744L122.848 15.4042V39.0058C122.848 41.8669 123.383 42.4056 125.872 42.7041L125.865 42.6822Z" fill="#EEAEB9"/>
<path d="M142.996 39.4062L143.35 39.5227C142.88 41.9688 141.1 43.9926 138.199 43.9926C134.293 43.9926 131.804 42.0853 131.804 34.8708V16.4525H128.78L128.722 15.9138H131.804V6.91581L134.763 6.55908V15.9211H141.751L141.636 16.4598H134.763V34.6961C134.763 40.8331 136.716 42.3837 139.386 42.3837C141.1 42.3837 142.583 41.0151 142.996 39.4062Z" fill="#EEAEB9"/>
<path d="M162.225 1.67456L175.71 33.3132C180.203 22.7646 184.702 12.2159 189.195 1.67456H195.626C194.31 2.29336 193.094 3.38534 193.094 6.51572V39.1517C193.094 42.2821 194.31 43.3741 195.626 43.9929H186.663C187.98 43.3741 189.195 42.2821 189.195 39.1517V2.90487L173.851 38.9115L160.474 7.52036C159.838 6.02797 159.469 5.08158 158.47 3.77119V39.1517C158.47 42.2821 159.686 43.3741 161.003 43.9929C159.15 43.9929 157.313 43.9929 155.461 43.9929C156.778 43.3741 157.993 42.2821 157.993 39.1517V3.25432C157.103 2.39529 156.213 2.024 155.468 1.67456H162.24H162.225Z" fill="#EEAEB9"/>
<path d="M229.657 29.5711H230.308C230.366 39.1879 224.47 43.9926 216.093 43.9926C208.663 43.9926 202.883 39.0641 202.883 29.3891V7.42544C202.883 3.21034 201.645 2.32218 199.048 2.32218V1.66699H211.672V2.32218C209.133 2.32218 207.368 2.67891 207.368 7.54192V29.9787C207.368 37.5135 211.795 41.7868 218.574 41.7868C225.353 41.7868 229.664 37.2732 229.664 29.5565L229.657 29.5711ZM223.233 1.67428H237.268V2.32947C230.127 2.32947 230.308 5.77289 230.308 14.2031H229.657C229.657 5.77289 229.418 2.32947 223.226 2.32947V1.67428H223.233Z" fill="#EEAEB9"/>
<path d="M262.183 39.1879C262.183 39.1879 259.969 43.9926 251.288 43.9926C243.598 43.9926 239.467 41.0006 239.467 41.0006V29.7458H239.93C239.93 40.4691 241.796 43.4612 251.23 43.4612C262.704 43.4612 263.174 32.1482 256.591 27.6346L246.282 20.7186C243.489 18.5492 235.915 13.8027 240.046 6.29705C240.046 6.29705 242.896 1.66699 249.95 1.66699C257.003 1.66699 261.597 4.36058 261.597 4.36058V14.2104H261.011C261.011 5.77289 260.02 2.19115 249.942 2.19115C243.648 2.19115 236.371 10.7524 246.332 17.2534L256.584 23.9946C264.505 29.2726 263.927 35.8901 262.176 39.1733L262.183 39.1879Z" fill="#EEAEB9"/>
<path d="M294 32.0971V43.9926H267.602V43.4538C270.112 43.4538 270.532 42.2527 270.532 38.1686V6.20234C270.532 2.475 270.235 2.23475 267.602 2.23475V1.69604H293.219V11.9098H292.683C292.683 2.41676 288.205 2.23475 278.533 2.23475H274.17V22.3638H279.784C283.011 22.3638 286.65 22.3056 286.65 16.4743H287.185V28.792H286.65C286.65 22.9608 282.83 22.9025 279.784 22.9025H274.17V43.4538H277.513C288.14 43.4538 293.457 43.9926 293.457 32.0971H293.993H294Z" fill="#EEAEB9"/>
</svg>
